<?xml version="1.0" standalone="no"?><!DOCTYPE svg PUBLIC "-//W3C//DTD SVG 1.1//EN" "http://www.w3.org/Graphics/SVG/1.1/DTD/svg11.dtd"><svg t="1704953608288" class="icon" viewBox="0 0 1024 1024" version="1.1" xmlns="http://www.w3.org/2000/svg" p-id="1960" xmlns:xlink="http://www.w3.org/1999/xlink" width="200" height="200"><path d="M 375.04 61.44 c -189.44 0 -342.72 153.6 -342.72 342.72 c 0 189.44 153.28 342.72 342.72 342.72 c 189.44 0 342.72 -153.6 342.72 -342.72 c 0 -189.12 -153.6 -342.72 -342.72 -342.72 Z m 0 575.36 a 226.56 226.56 0 1 1 0 -453.12 a 226.56 226.56 0 0 1 0 453.12 Z" fill="#17a3e0" p-id="1961"></path><path d="M 895.04 948.48 l -275.52 -241.28 c -0.32 -0.32 -0.64 -0.64 -0.64 -0.96 l -5.44 -64.64 c 0 -0.96 0.64 -1.6 1.6 -1.92 l 67.84 -6.72 c 0.32 0 0.96 0 1.28 0.32 l 275.52 241.28 c 0.64 0.64 0.64 1.6 0 2.24 l -62.4 71.04 c -0.64 1.28 -1.6 1.28 -2.24 0.64 Z" fill="#17a3e0" p-id="1962"></path></svg>